<?xml version="1.0" standalone="no"?>
<!DOCTYPE svg PUBLIC "-//W3C//DTD SVG 20010904//EN"
 "http://www.w3.org/TR/2001/REC-SVG-20010904/DTD/svg10.dtd">
<svg version="1.0" xmlns="http://www.w3.org/2000/svg"
 width="1920.000000pt" height="1920.000000pt" viewBox="0 0 1920.000000 1920.000000"
 preserveAspectRatio="xMidYMid meet">

<g transform="translate(0.000000,1920.000000) scale(0.100000,-0.100000)"
fill="#000000" stroke="none">
<path d="M8850 15694 c-19 -2 -84 -9 -145 -15 -619 -61 -1330 -289 -1855 -594
-671 -389 -1099 -873 -1196 -1355 -13 -68 -15 -110 -9 -220 10 -196 11 -193
-28 -336 -62 -226 -81 -395 -82 -719 0 -297 8 -395 51 -620 46 -239 103 -412
199 -610 101 -208 204 -355 372 -529 383 -396 823 -674 1322 -836 76 -25 108
-39 96 -44 -9 -3 -162 -10 -340 -16 -357 -10 -468 -25 -600 -81 -38 -16 -74
-29 -79 -29 -5 0 -47 22 -95 49 -198 112 -387 164 -601 164 -152 0 -272 -24
-411 -82 -342 -142 -569 -491 -545 -836 21 -315 190 -577 471 -730 39 -21 71
-39 72 -40 2 -1 -49 -98 -113 -216 -136 -252 -334 -647 -366 -729 l-22 -58
-115 -6 c-400 -23 -714 -90 -951 -202 -339 -161 -586 -405 -692 -685 -29 -76
-32 -95 -32 -194 -1 -95 3 -117 23 -163 34 -75 48 -82 159 -82 52 0 92 -3 90
-7 -2 -5 -25 -50 -51 -102 -172 -334 -210 -752 -103 -1121 119 -408 410 -757
792 -949 l98 -49 -55 -6 c-30 -3 -119 -8 -199 -11 -267 -11 -512 -33 -528 -49
-11 -11 17 -23 67 -30 88 -11 267 -25 396 -31 72 -3 171 -8 220 -10 313 -16
1322 -40 1940 -46 440 -4 3943 -6 4650 -2 226 1 491 0 591 -4 136 -4 210 -2
300 10 71 10 236 18 409 22 354 7 960 32 1110 45 174 16 225 25 225 40 0 27
-335 53 -1012 76 l-197 7 91 60 c168 112 351 306 462 491 29 48 37 56 42 40
79 -226 262 -358 487 -353 l79 2 36 -64 c71 -128 218 -245 356 -284 69 -20
207 -23 281 -6 60 14 206 84 230 112 25 27 38 24 92 -18 116 -88 267 -137 428
-136 171 0 307 46 446 151 l66 51 89 -44 c116 -57 212 -76 378 -76 342 2 647
114 817 299 73 81 143 216 165 322 20 96 14 252 -14 330 -24 70 -63 143 -102
195 l-30 41 64 127 c113 225 168 440 168 662 0 101 -4 148 -21 210 -70 263
-338 465 -680 515 -113 17 -350 7 -462 -19 -283 -65 -509 -222 -606 -421 -23
-47 -47 -109 -53 -138 -8 -32 -17 -51 -24 -48 -140 60 -278 61 -397 4 -41 -19
-96 -55 -122 -78 l-48 -43 -52 51 c-138 135 -332 194 -507 152 -85 -20 -196
-79 -264 -141 l-61 -56 -115 125 c-63 69 -184 189 -268 266 l-153 141 50 3
c37 2 62 -3 98 -22 87 -44 158 -59 254 -54 76 4 97 9 162 41 148 73 227 205
227 380 0 84 -38 320 -64 397 -99 291 -360 387 -605 223 l-63 -43 -51 46 c-55
49 -138 95 -203 113 l-41 11 -7 62 c-12 115 -76 217 -164 260 -46 22 -56 23
-422 28 -206 3 -363 7 -349 8 64 5 272 53 307 71 53 27 109 92 123 143 11 40
7 295 -6 398 -2 19 -14 134 -25 255 -59 614 -177 1274 -280 1557 -65 180 -171
289 -328 338 l-52 16 97 66 c317 215 546 476 713 813 78 156 123 283 171 481
123 507 130 948 24 1402 -184 779 -668 1496 -1370 2024 -432 324 -860 496
-1436 574 -108 15 -698 28 -789 18z m673 -179 c194 -21 292 -38 427 -73 63
-17 140 -37 170 -45 85 -23 120 -40 244 -121 492 -321 868 -725 1138 -1226
220 -407 281 -751 183 -1033 -24 -71 -89 -191 -130 -241 l-23 -29 -88 18
c-273 54 -545 -57 -711 -292 -17 -23 -33 -39 -37 -35 -4 3 -4 -2 0 -12 6 -15
4 -17 -6 -11 -9 5 -11 4 -6 -3 4 -7 3 -20 -3 -29 -7 -13 -11 -6 -16 32 -31
233 -87 475 -156 671 -40 116 -152 346 -224 459 -209 333 -463 552 -822 709
-87 39 -285 109 -338 121 -11 2 -87 19 -170 38 -176 40 -362 73 -495 87 -378
39 -440 43 -725 44 -374 1 -519 -9 -845 -58 -186 -28 -372 -77 -610 -161 -85
-30 -156 -52 -159 -50 -9 10 298 303 399 381 352 272 750 481 1210 635 388
129 709 196 1125 232 122 11 539 6 668 -8z m-1495 -1146 c810 -57 1364 -210
1712 -473 309 -232 555 -637 675 -1111 64 -252 79 -372 79 -620 0 -233 -13
-344 -65 -550 -106 -420 -372 -815 -724 -1075 -336 -248 -680 -370 -1138 -401
-467 -32 -1168 61 -1700 226 -81 25 -176 87 -318 207 l-44 37 100 -30 c344
-102 700 -162 1315 -220 333 -32 725 -32 928 -1 170 27 338 69 448 112 707
280 1055 905 1057 1900 1 238 -13 335 -74 525 -156 488 -558 861 -1168 1082
-415 150 -1030 224 -1614 195 -545 -27 -907 -107 -1240 -273 -170 -85 -288
-168 -396 -279 l-43 -45 6 65 c8 87 42 210 81 295 l32 71 144 61 c404 171 806
268 1264 302 163 12 516 12 683 0z m-988 -430 c-234 -141 -391 -292 -533 -510
-149 -228 -256 -515 -302 -809 -23 -144 -31 -502 -16 -682 31 -366 131 -772
252 -1027 27 -57 47 -106 45 -108 -5 -5 -123 41 -191 75 -115 57 -153 90 -223
196 -199 297 -320 666 -361 1101 -13 140 -6 527 13 660 61 444 162 626 451
817 208 138 422 216 830 301 11 3 31 5 45 6 23 1 22 -1 -10 -20z m-193 -581
c18 -17 43 -57 55 -87 19 -49 22 -74 22 -201 -1 -128 -4 -156 -28 -235 -67
-222 -164 -345 -272 -345 -157 0 -215 307 -114 606 85 250 232 364 337 262z
m4564 -762 c186 -40 345 -194 394 -381 82 -316 -171 -635 -503 -635 -249 0
-467 194 -504 447 -10 70 -9 93 5 160 36 168 133 296 277 366 111 54 213 68
331 43z m-4734 -270 c57 -61 65 -154 22 -236 -38 -72 -76 -100 -135 -100 -98
0 -158 119 -119 235 24 69 47 99 97 124 55 28 93 21 135 -23z m5408 -1075
c-93 -186 -210 -344 -366 -497 -176 -171 -326 -275 -579 -404 -444 -225 -1020
-371 -1815 -461 -233 -26 -752 -37 -957 -20 -260 22 -542 71 -736 127 -90 26
-122 42 -62 30 77 -15 344 -46 490 -57 197 -15 575 -7 730 16 290 43 562 139
847 298 34 19 64 25 150 31 347 22 817 134 1178 281 256 104 573 269 761 395
111 76 222 167 309 255 44 44 81 80 83 79 2 -1 -13 -34 -33 -73z m-660 -1105
c134 -35 201 -114 258 -306 41 -134 88 -343 80 -350 -5 -4 -37 -14 -73 -23
-280 -70 -605 -111 -605 -76 0 75 19 306 35 430 31 235 63 323 118 332 59 9
139 6 187 -7z m-897 -313 c135 -293 203 -637 242 -1228 6 -88 12 -177 14 -198
2 -20 0 -35 -4 -32 -5 3 -40 65 -78 138 -39 72 -127 226 -196 342 -69 115
-126 213 -126 218 0 5 15 48 34 96 85 213 72 480 -33 668 l-29 52 32 10 c39
12 66 18 87 20 11 1 29 -27 57 -86z m-322 -39 c57 -87 86 -181 92 -299 5 -118
-10 -195 -62 -308 -45 -99 -84 -156 -170 -246 -102 -106 -206 -180 -369 -260
-202 -100 -460 -183 -737 -236 -47 -9 -92 -18 -100 -21 -14 -3 -16 15 -16 138
0 112 -5 164 -23 243 -46 201 -121 371 -212 483 -29 34 -50 64 -48 65 2 2 42
16 89 31 211 70 406 161 580 273 l95 61 110 11 c133 14 518 75 635 100 47 11
88 19 92 20 3 1 23 -24 44 -55z m-4161 -85 c118 -22 233 -65 333 -124 69 -40
207 -142 235 -172 17 -20 16 -20 -43 -26 -161 -14 -292 -172 -359 -433 -10
-35 -16 -42 -49 -52 -38 -12 -39 -13 -60 -97 -46 -179 -116 -323 -207 -423
l-49 -54 -106 4 c-58 2 -111 8 -118 12 -9 5 6 29 46 79 84 102 118 156 169
263 140 295 116 752 -52 985 -22 31 -30 49 -22 53 30 12 182 4 282 -15z m2355
-15 c14 -2 139 -4 279 -4 158 0 251 -4 245 -9 -16 -17 -234 -106 -349 -144
-110 -36 -539 -147 -570 -147 -20 0 93 222 142 279 l35 42 97 -6 c53 -4 107
-9 121 -11z m-460 -19 c0 -3 -15 -36 -34 -73 -36 -73 -60 -134 -76 -198 l-10
-40 -72 8 c-97 12 -218 -4 -340 -46 -89 -30 -102 -32 -160 -24 -113 16 -104 8
-111 96 -4 70 -19 121 -63 217 -3 7 88 15 273 24 153 8 337 19 408 26 164 15
185 16 185 10z m-2364 -25 c90 -44 173 -239 190 -444 6 -72 3 -93 -21 -171
-44 -145 -99 -242 -179 -319 -87 -82 -167 -122 -266 -133 l-58 -6 -32 44
c-145 199 -172 469 -69 686 38 80 123 186 196 244 48 39 177 118 192 119 3 0
24 -9 47 -20z m1330 -77 c39 -51 73 -140 74 -191 l0 -43 -37 7 c-21 3 -45 14
-53 23 -9 9 -56 57 -104 108 l-88 92 63 20 c94 29 112 27 145 -16z m4916 -339
c45 -242 101 -707 138 -1143 21 -256 18 -311 -18 -330 -21 -11 -131 -33 -327
-66 l-150 -25 -38 42 c-54 60 -140 241 -182 383 -67 223 -134 609 -150 865 -3
52 -8 130 -11 173 l-5 77 48 0 c132 0 448 51 583 94 41 13 80 23 85 22 6 -2
18 -43 27 -92z m-3378 -16 c58 -58 82 -91 114 -158 107 -226 154 -491 111
-627 -5 -17 -16 -34 -24 -37 -8 -3 -73 -8 -144 -12 l-130 -7 -3 69 c-2 39 5
106 14 154 21 104 22 154 3 245 -23 111 -85 225 -172 315 l-74 78 103 25 c57
14 109 26 116 26 7 1 45 -32 86 -71z m-1579 -29 c121 -17 222 -33 224 -35 2
-2 -25 -34 -61 -71 -93 -97 -188 -256 -188 -316 0 -17 -4 -19 -42 -13 -139 22
-399 129 -406 167 -6 31 65 193 103 237 64 73 68 74 370 31z m970 -3 c165 -46
284 -144 350 -287 24 -55 48 -169 35 -169 -4 0 -34 12 -66 27 -52 25 -71 28
-159 28 -91 0 -106 -3 -165 -31 -82 -39 -144 -101 -183 -183 -26 -55 -31 -76
-30 -142 l0 -76 -40 0 c-34 0 -47 6 -74 35 -32 34 -35 35 -88 28 -53 -6 -55
-5 -87 30 l-33 36 -75 -7 c-67 -6 -80 -4 -119 17 -69 37 -93 91 -89 193 5 104
38 173 127 267 126 134 275 219 439 248 60 11 192 4 257 -14z m2222 -608 c203
-251 412 -604 547 -926 l47 -112 -38 -58 c-55 -83 -186 -209 -283 -274 -216
-142 -416 -205 -743 -233 -233 -19 -319 -51 -400 -145 -63 -74 -137 -240 -177
-397 l-11 -43 -97 0 c-209 0 -429 29 -647 85 -268 69 -495 165 -589 247 l-49
43 1 145 c1 224 42 398 143 605 117 239 328 445 587 575 107 53 265 105 367
121 44 7 96 20 115 29 19 10 73 23 120 29 291 42 754 201 955 328 44 28 83 52
87 52 4 1 33 -32 65 -71z m-3413 -224 c15 -3 99 -81 201 -185 l176 -180 -5
-57 c-3 -31 -8 -154 -11 -272 -3 -118 -8 -287 -11 -375 -3 -88 -11 -331 -19
-540 -7 -209 -9 -389 -5 -400 4 -11 24 -35 45 -52 92 -79 144 -134 139 -148
-4 -10 -47 19 -150 103 l-144 116 0 811 c0 445 -3 820 -6 833 -6 21 -103 98
-372 292 l-102 74 31 32 30 31 89 -38 c49 -21 100 -41 114 -45z m531 -61 c35
-4 71 -14 86 -26 15 -10 52 -22 85 -26 86 -10 88 -14 54 -70 -85 -138 -156
-329 -186 -501 -24 -141 -15 -399 20 -535 43 -174 96 -294 192 -443 46 -70 85
-166 73 -176 -2 -2 -33 -18 -69 -37 -36 -19 -94 -62 -129 -96 l-64 -62 -36 28
c-81 64 -75 -5 -52 663 12 326 24 695 27 821 l7 227 -118 119 c-115 117 -117
120 -89 124 29 5 80 2 199 -10z m589 -138 c51 -38 123 -66 191 -73 l62 -7 -87
-80 c-83 -77 -207 -223 -252 -295 -111 -182 -191 -425 -214 -644 -7 -77 -13
-74 -44 24 -78 251 -78 506 1 740 34 102 82 203 135 288 32 49 36 52 76 53 24
0 52 4 63 9 30 13 34 12 69 -15z m-2017 0 c48 -2 112 0 141 4 28 4 52 6 52 4
0 -2 -16 -35 -35 -73 -19 -38 -35 -71 -35 -72 0 -2 33 -2 73 0 136 5 291 44
409 103 l56 28 141 -102 140 -102 1 -751 0 -751 -38 -7 c-57 -9 -291 11 -406
35 -128 27 -305 88 -432 150 -95 46 -291 170 -306 193 -4 6 -10 8 -13 4 -21
-20 126 -254 260 -413 112 -133 347 -475 509 -740 195 -319 266 -416 394 -537
117 -110 227 -177 357 -218 l70 -21 1457 1 1457 1 55 -74 c31 -41 56 -77 56
-80 0 -3 -426 -8 -947 -10 -587 -2 -1065 -9 -1256 -17 -506 -23 -830 10 -1077
107 -229 90 -384 215 -513 410 -72 110 -81 127 -236 443 -130 267 -192 374
-305 524 -176 234 -379 428 -628 601 -80 56 -87 63 -93 102 -10 60 18 183 71
315 58 144 353 721 461 901 27 45 39 56 53 52 11 -3 59 -8 107 -10z m5179
-516 c16 -23 48 -57 73 -75 l44 -34 -105 0 -106 0 31 75 c16 41 31 75 32 75 1
0 15 -19 31 -41z m1498 -308 c14 -13 30 -39 36 -58 10 -28 9 -38 -10 -67 -84
-137 -372 -231 -771 -252 -197 -10 -646 35 -726 73 -29 13 -33 20 -33 52 0 33
8 45 68 103 61 59 115 99 212 156 34 20 45 21 617 19 l581 -2 26 -24z m-7528
-414 c-1 -144 4 -157 89 -213 30 -20 52 -41 48 -47 -3 -6 -1 -7 5 -3 6 4 23
-1 36 -10 l25 -16 -27 -23 c-159 -133 -517 -292 -822 -364 -190 -45 -255 -53
-489 -60 l-234 -6 -16 -55 c-9 -30 -19 -59 -23 -65 -3 -6 -40 -9 -87 -7 l-80
4 -7 34 c-3 19 -1 62 6 96 46 234 288 502 586 652 228 113 599 195 925 204
l65 2 0 -123z m7763 88 c105 -37 181 -124 227 -260 22 -66 28 -104 32 -214 3
-98 2 -132 -7 -127 -6 4 -11 17 -11 29 0 30 -15 53 -24 38 -11 -17 -115 -67
-177 -85 -29 -8 -91 -17 -137 -20 l-82 -5 -114 55 c-63 30 -119 54 -125 54 -6
0 -11 5 -11 10 0 6 7 10 14 10 8 0 50 18 93 40 152 79 223 184 233 344 6 84
23 146 40 146 4 0 26 -7 49 -15z m657 -55 c96 -47 156 -180 169 -372 l7 -108
-74 0 c-91 1 -145 13 -223 50 -95 47 -104 57 -115 130 -6 36 -22 98 -37 139
-15 42 -22 76 -16 80 5 3 29 20 54 38 94 66 162 78 235 43z m-5566 -470 c96
-48 205 -89 350 -130 266 -75 459 -107 698 -117 139 -5 162 -8 162 -22 0 -33
-69 -309 -95 -381 -133 -367 -335 -521 -704 -537 -483 -22 -851 239 -878 622
-7 102 18 194 76 282 61 91 136 143 253 177 66 19 83 40 75 97 -3 22 -3 39 -1
39 3 0 31 -13 64 -30z m3954 -35 c394 -61 715 -205 1046 -472 172 -137 590
-565 590 -603 0 -7 13 -24 30 -40 39 -37 105 -161 124 -235 41 -155 -5 -279
-126 -339 l-52 -26 -1497 0 -1497 0 -82 111 c-267 362 -361 577 -361 830 -1
362 207 569 697 693 181 45 405 83 594 100 94 8 439 -4 534 -19z m-6208 -196
c42 -27 82 -66 119 -113 30 -40 55 -76 55 -80 0 -4 -125 -261 -279 -570 l-279
-563 -46 -7 c-83 -13 -139 10 -176 70 l-21 34 35 87 c19 49 67 160 106 248 39
88 90 203 112 255 37 86 248 570 283 648 8 17 18 32 22 32 3 0 35 -18 69 -41z
m10554 -146 c195 -39 382 -167 445 -305 86 -190 39 -525 -117 -830 -37 -73
-55 -98 -73 -102 -32 -8 -58 -49 -57 -88 1 -24 15 -45 70 -99 102 -102 141
-194 142 -334 0 -317 -255 -524 -709 -576 -234 -26 -398 16 -515 132 -20 21
-38 29 -62 29 -29 0 -46 -11 -111 -75 -111 -110 -259 -175 -398 -175 -125 0
-287 66 -379 155 -32 30 -67 60 -78 66 -33 18 -70 1 -135 -62 -34 -33 -88 -72
-120 -87 -53 -24 -69 -27 -173 -27 -102 0 -120 3 -160 24 -108 57 -184 146
-224 264 -18 50 -28 65 -55 79 -30 15 -37 15 -84 1 -85 -26 -169 -20 -243 17
-107 52 -164 142 -180 280 -7 61 -23 91 -55 102 -10 3 -11 12 -3 39 l10 34
289 5 c273 5 293 6 338 27 210 97 298 298 237 538 -11 43 -43 121 -70 172
l-50 94 20 28 c77 109 244 179 364 154 127 -27 234 -110 294 -229 30 -58 60
-84 100 -84 32 0 61 30 92 96 92 192 324 227 468 69 58 -63 84 -78 122 -70 55
12 65 36 62 147 -4 114 8 178 48 258 76 152 265 280 489 331 128 29 319 30
461 2z m-12562 -535 c-4 -29 -11 -168 -14 -308 -9 -351 17 -567 96 -815 18
-55 35 -107 37 -115 10 -31 -40 49 -81 130 -45 89 -95 233 -123 354 -23 101
-23 420 0 531 19 92 77 275 87 275 3 0 3 -24 -2 -52z m1422 -42 c0 -2 -13 -32
-29 -68 -29 -63 -32 -66 -72 -72 -79 -13 -169 -64 -244 -140 -111 -112 -150
-217 -143 -387 3 -88 7 -103 42 -174 70 -141 208 -250 351 -276 74 -14 194 -6
260 17 149 51 276 186 320 338 22 75 22 197 1 270 l-16 55 32 66 c18 36 35 65
39 65 11 0 66 -132 80 -190 43 -185 -18 -407 -152 -554 -156 -171 -396 -244
-618 -187 -114 28 -201 79 -291 170 -215 216 -249 528 -85 781 91 141 224 236
385 275 51 12 140 20 140 11z m-185 -420 c-14 -31 -25 -67 -25 -80 0 -13 16
-55 35 -94 64 -128 162 -188 300 -185 39 1 90 9 114 17 24 9 46 14 49 11 3 -2
-8 -26 -24 -51 -55 -90 -185 -153 -288 -140 -70 8 -168 58 -211 108 -110 129
-96 337 29 444 22 19 41 32 43 30 2 -1 -8 -28 -22 -60z m1640 -195 c198 -194
480 -309 890 -363 124 -16 641 -16 905 1 110 6 482 11 921 11 l736 0 32 -87
c106 -283 301 -543 534 -712 48 -35 86 -65 85 -66 -2 -2 -359 0 -794 3 -845 7
-3464 -1 -3954 -13 l-295 -6 101 59 c138 80 211 137 334 261 165 166 297 379
369 596 34 101 71 275 71 329 0 20 3 36 7 36 4 0 30 -22 58 -49z m5395 -349
c0 -15 -101 -113 -147 -143 -146 -92 -357 -95 -503 -6 -48 29 -150 127 -150
144 0 11 71 13 400 13 220 0 400 -4 400 -8z"/>
<path d="M9648 15453 c6 -2 18 -2 25 0 6 3 1 5 -13 5 -14 0 -19 -2 -12 -5z"/>
<path d="M9708 15453 c6 -2 18 -2 25 0 6 3 1 5 -13 5 -14 0 -19 -2 -12 -5z"/>
<path d="M11201 12436 c-70 -23 -147 -82 -190 -147 -122 -183 -54 -427 147
-526 50 -25 68 -28 152 -28 84 0 102 3 152 28 96 47 179 147 202 241 4 17 7
60 7 97 0 128 -89 262 -211 318 -68 31 -191 39 -259 17z m213 -187 c43 -29 86
-108 86 -158 -1 -80 -63 -160 -140 -181 -139 -37 -268 90 -230 229 13 48 62
108 105 128 46 21 136 12 179 -18z"/>
<path d="M6141 9154 c0 -11 3 -14 6 -6 3 7 2 16 -1 19 -3 4 -6 -2 -5 -13z"/>
<path d="M6822 8930 c0 -14 2 -19 5 -12 2 6 2 18 0 25 -3 6 -5 1 -5 -13z"/>
<path d="M13188 6843 c7 -3 16 -2 19 1 4 3 -2 6 -13 5 -11 0 -14 -3 -6 -6z"/>
<path d="M11000 5771 c-79 -24 -149 -81 -182 -146 -29 -55 -35 -151 -14 -216
10 -28 15 -54 11 -57 -8 -9 -180 16 -254 37 -173 49 -394 171 -422 234 -7 16
-8 -2 -5 -58 8 -141 111 -384 208 -490 98 -108 192 -132 549 -140 134 -3 341
-7 459 -10 284 -6 1069 11 1395 30 143 9 347 20 453 24 111 5 198 13 204 19
14 14 4 50 -29 99 -36 54 -191 229 -249 282 l-45 42 -65 -7 c-36 -3 -155 -14
-265 -23 -177 -14 -199 -15 -193 -1 3 8 10 36 16 62 25 108 -40 238 -147 292
l-60 31 -670 2 c-368 1 -681 -2 -695 -6z m1370 -190 c33 -32 45 -69 36 -106
l-6 -25 -618 0 -617 0 -51 24 c-29 13 -64 40 -79 60 -15 20 -35 36 -44 36 -12
1 -11 5 8 20 23 19 42 20 683 20 l660 0 28 -29z"/>
</g>
</svg>
